<?xml version="1.0" standalone="no"?>
<!DOCTYPE svg PUBLIC "-//W3C//DTD SVG 20010904//EN"
 "http://www.w3.org/TR/2001/REC-SVG-20010904/DTD/svg10.dtd">
<svg version="1.0" xmlns="http://www.w3.org/2000/svg"
 width="261.000000px" height="261.000000px" viewBox="0 0 261.000000 200.000000"
 preserveAspectRatio="xMidYMid meet">

<g transform="translate(0.000000,200.000000) scale(0.100000,-0.100000)"
fill="orange" stroke="none">
<path d="M1227 1008 c-81 -337 -147 -616 -147 -620 0 -11 168 -10 174 0 6 10
296 1204 296 1220 0 8 -27 12 -88 12 l-87 0 -148 -612z"/>
<path d="M560 1330 c-234 -98 -440 -186 -458 -194 l-33 -16 3 -122 3 -121 460
-192 460 -192 3 145 c1 80 -1 149 -5 152 -5 4 -124 52 -265 106 -142 55 -258
102 -258 105 0 3 118 51 263 107 l262 100 3 151 c1 83 -1 151 -5 150 -5 -1
-199 -81 -433 -179z"/>
<path d="M1626 1503 c-3 -3 -6 -70 -6 -148 l0 -142 270 -104 c149 -57 270
-106 270 -109 0 -3 -122 -52 -270 -109 l-270 -104 0 -142 c0 -78 2 -144 5
-147 3 -3 212 81 465 186 l460 191 0 126 0 126 -452 188 c-249 103 -456 189
-459 191 -3 2 -9 1 -13 -3z"/>
</g>
</svg>
